# xmcd
#
# Track frame offsets: 
#        150
#        22920
#        39332
#        56433
#        73590
#        86380
#        100354
#        138102
#        155777
#        174779
#
# Disc length: 2642 seconds
#
# Revision: 0
# Processed by: cddbd v1.5.2PL0 Copyright (c) Steve Scherf et al.
# Submitted via: ExactAudioCopyFreeDBPlugin 1.0
#
DISCID=720a500a
DTITLE=The Blues Against Youth - Good Morning Bad Feeling
DYEAR=2017
DGENRE=Blues
TTITLE0=Good Morning Bad Feeling
TTITLE1=(You've Got) That Reason Why (You Know)
TTITLE2=It's Been A Long Time Mama
TTITLE3=Another Pretty Country Song (by David Allan Coe)
TTITLE4=Got Blood In My Rhythm
TTITLE5=Lonesome Road (by Doc Watson)
TTITLE6=Records And Fish
TTITLE7=Barbed Times
TTITLE8=Soul Mercenary Blues
TTITLE9=Rising Sun Blues (live)
EXTD=
EXTT0=
EXTT1=
EXTT2=
EXTT3=
EXTT4=
EXTT5=
EXTT6=
EXTT7=
EXTT8=
EXTT9=
PLAYORDER=
